HIERARCHY
ROOT mixamorig:Hips
{
	OFFSET 0.000000 201.639420 0.000000
	CHANNELS 6 Xposition Yposition Zposition Xrotation Yrotation Zrotation
	JOINT mixamorig:Spine
	{
		OFFSET 0.006200 19.524994 -2.481800
		CHANNELS 3 Xrotation Yrotation Zrotation
		JOINT mixamorig:Spine1
		{
			OFFSET -0.000900 22.835007 -2.825400
			CHANNELS 3 Xrotation Yrotation Zrotation
			JOINT mixamorig:Spine2
			{
				OFFSET -0.020600 26.552490 -3.193300
				CHANNELS 3 Xrotation Yrotation Zrotation
				JOINT mixamorig:Neck
				{
					OFFSET -0.060000 30.701813 1.352200
					CHANNELS 3 Xrotation Yrotation Zrotation
					JOINT mixamorig:Head
					{
						OFFSET -0.087200 22.547607 3.670900
						CHANNELS 3 Xrotation Yrotation Zrotation
						JOINT mixamorig:HeadTop_End
						{
							OFFSET -0.830600 40.355194 7.893500
							CHANNELS 3 Xrotation Yrotation Zrotation
							End Site
							{
								OFFSET 0.000000 30.592346 0.000000
							}
						}
						JOINT mixamorig:RightEye
						{
							OFFSET -6.302100 18.118591 16.197100
							CHANNELS 3 Xrotation Yrotation Zrotation
							End Site
							{
								OFFSET 0.000000 30.592346 0.000000
							}
						}
						JOINT mixamorig:LeftEye
						{
							OFFSET 6.741500 18.382690 16.401899
							CHANNELS 3 Xrotation Yrotation Zrotation
							End Site
							{
								OFFSET 0.000000 30.592346 0.000000
							}
						}
					}
				}
				JOINT mixamorig:LeftShoulder
				{
					OFFSET 11.924900 18.230499 1.425400
					CHANNELS 3 Xrotation Yrotation Zrotation
					JOINT mixamorig:LeftArm
					{
						OFFSET 25.435989 -0.697632 -5.229300
						CHANNELS 3 Xrotation Yrotation Zrotation
						JOINT mixamorig:LeftForeArm
						{
							OFFSET 54.684776 0.000000 0.000000
							CHANNELS 3 Xrotation Yrotation Zrotation
							JOINT mixamorig:LeftHand
							{
								OFFSET 55.098175 0.000000 0.000000
								CHANNELS 3 Xrotation Yrotation Zrotation
								JOINT mixamorig:LeftHandMiddle1
								{
									OFFSET 23.369751 0.000000 0.000000
									CHANNELS 3 Xrotation Yrotation Zrotation
									JOINT mixamorig:LeftHandMiddle2
									{
										OFFSET 6.378677 0.000000 0.000000
										CHANNELS 3 Xrotation Yrotation Zrotation
										JOINT mixamorig:LeftHandMiddle3
										{
											OFFSET 6.148331 0.000000 0.000000
											CHANNELS 3 Xrotation Yrotation Zrotation
											JOINT mixamorig:LeftHandMiddle4
											{
												OFFSET 6.582504 0.000000 0.000000
												CHANNELS 3 Xrotation Yrotation Zrotation
												End Site
												{
													OFFSET -1.168900 6.395691 1.028606
												}
											}
										}
									}
								}
								JOINT mixamorig:LeftHandThumb1
								{
									OFFSET 7.235672 -3.848206 5.434273
									CHANNELS 3 Xrotation Yrotation Zrotation
									JOINT mixamorig:LeftHandThumb2
									{
										OFFSET 6.568451 -3.792297 3.792300
										CHANNELS 3 Xrotation Yrotation Zrotation
										JOINT mixamorig:LeftHandThumb3
										{
											OFFSET 6.063080 -3.500519 3.500518
											CHANNELS 3 Xrotation Yrotation Zrotation
											JOINT mixamorig:LeftHandThumb4
											{
												OFFSET 4.793182 -2.767334 2.767349
												CHANNELS 3 Xrotation Yrotation Zrotation
												End Site
												{
													OFFSET 0.101639 6.054260 1.275483
												}
											}
										}
									}
								}
								JOINT mixamorig:LeftHandIndex1
								{
									OFFSET 23.101074 -0.309540 4.992809
									CHANNELS 3 Xrotation Yrotation Zrotation
									JOINT mixamorig:LeftHandIndex2
									{
										OFFSET 6.226883 0.000000 0.000000
										CHANNELS 3 Xrotation Yrotation Zrotation
										JOINT mixamorig:LeftHandIndex3
										{
											OFFSET 6.094330 0.000000 0.000000
											CHANNELS 3 Xrotation Yrotation Zrotation
											JOINT mixamorig:LeftHandIndex4
											{
												OFFSET 5.482605 0.000000 0.000000
												CHANNELS 3 Xrotation Yrotation Zrotation
												End Site
												{
													OFFSET -1.427902 5.233032 0.797164
												}
											}
										}
									}
								}
								JOINT mixamorig:LeftHandRing1
								{
									OFFSET 22.299240 0.021149 -3.964172
									CHANNELS 3 Xrotation Yrotation Zrotation
									JOINT mixamorig:LeftHandRing2
									{
										OFFSET 6.321869 0.000000 0.000000
										CHANNELS 3 Xrotation Yrotation Zrotation
										JOINT mixamorig:LeftHandRing3
										{
											OFFSET 5.899796 0.000000 0.000000
											CHANNELS 3 Xrotation Yrotation Zrotation
											JOINT mixamorig:LeftHandRing4
											{
												OFFSET 6.517899 0.000000 0.000000
												CHANNELS 3 Xrotation Yrotation Zrotation
												End Site
												{
													OFFSET -1.637299 6.232208 0.980890
												}
											}
										}
									}
								}
								JOINT mixamorig:LeftHandPinky1
								{
									OFFSET 20.463791 -0.302338 -8.562233
									CHANNELS 3 Xrotation Yrotation Zrotation
									JOINT mixamorig:LeftHandPinky2
									{
										OFFSET 6.908646 0.000000 0.000000
										CHANNELS 3 Xrotation Yrotation Zrotation
										JOINT mixamorig:LeftHandPinky3
										{
											OFFSET 4.622849 0.000000 0.000000
											CHANNELS 3 Xrotation Yrotation Zrotation
											JOINT mixamorig:LeftHandPinky4
											{
												OFFSET 5.216080 0.000000 0.000000
												CHANNELS 3 Xrotation Yrotation Zrotation
												End Site
												{
													OFFSET -0.606308 5.116241 0.814926
												}
											}
										}
									}
								}
							}
						}
					}
				}
				JOINT mixamorig:RightShoulder
				{
					OFFSET -12.001300 18.284088 1.348900
					CHANNELS 3 Xrotation Yrotation Zrotation
					JOINT mixamorig:RightArm
					{
						OFFSET -25.308500 -0.751312 -5.164599
						CHANNELS 3 Xrotation Yrotation Zrotation
						JOINT mixamorig:RightForeArm
						{
							OFFSET -54.684429 0.000000 0.000000
							CHANNELS 3 Xrotation Yrotation Zrotation
							JOINT mixamorig:RightHand
							{
								OFFSET -55.150291 0.000000 0.000000
								CHANNELS 3 Xrotation Yrotation Zrotation
								JOINT mixamorig:RightHandMiddle1
								{
									OFFSET -23.317566 0.000000 0.000000
									CHANNELS 3 Xrotation Yrotation Zrotation
									JOINT mixamorig:RightHandMiddle2
									{
										OFFSET -6.378403 0.000000 0.000000
										CHANNELS 3 Xrotation Yrotation Zrotation
										JOINT mixamorig:RightHandMiddle3
										{
											OFFSET -6.148193 0.000000 0.000000
											CHANNELS 3 Xrotation Yrotation Zrotation
											JOINT mixamorig:RightHandMiddle4
											{
												OFFSET -6.583389 0.000000 0.000000
												CHANNELS 3 Xrotation Yrotation Zrotation
												End Site
												{
													OFFSET 1.171692 6.395905 1.029786
												}
											}
										}
									}
								}
								JOINT mixamorig:RightHandThumb1
								{
									OFFSET -7.190521 -3.860474 5.435846
									CHANNELS 3 Xrotation Yrotation Zrotation
									JOINT mixamorig:RightHandThumb2
									{
										OFFSET -6.567429 -3.791718 3.791708
										CHANNELS 3 Xrotation Yrotation Zrotation
										JOINT mixamorig:RightHandThumb3
										{
											OFFSET -6.062469 -3.500153 3.500166
											CHANNELS 3 Xrotation Yrotation Zrotation
											JOINT mixamorig:RightHandThumb4
											{
												OFFSET -4.792618 -2.767029 2.767022
												CHANNELS 3 Xrotation Yrotation Zrotation
												End Site
												{
													OFFSET -0.100327 6.053253 1.276754
												}
											}
										}
									}
								}
								JOINT mixamorig:RightHandIndex1
								{
									OFFSET -23.048981 -0.310791 4.992554
									CHANNELS 3 Xrotation Yrotation Zrotation
									JOINT mixamorig:RightHandIndex2
									{
										OFFSET -6.227539 0.000000 0.000000
										CHANNELS 3 Xrotation Yrotation Zrotation
										JOINT mixamorig:RightHandIndex3
										{
											OFFSET -6.095047 0.000000 0.000000
											CHANNELS 3 Xrotation Yrotation Zrotation
											JOINT mixamorig:RightHandIndex4
											{
												OFFSET -5.484772 0.000000 0.000000
												CHANNELS 3 Xrotation Yrotation Zrotation
												End Site
												{
													OFFSET 1.420593 5.237305 0.797056
												}
											}
										}
									}
								}
								JOINT mixamorig:RightHandRing1
								{
									OFFSET -22.246323 0.020569 -3.963762
									CHANNELS 3 Xrotation Yrotation Zrotation
									JOINT mixamorig:RightHandRing2
									{
										OFFSET -6.322128 0.000000 0.000000
										CHANNELS 3 Xrotation Yrotation Zrotation
										JOINT mixamorig:RightHandRing3
										{
											OFFSET -5.900024 0.000000 0.000000
											CHANNELS 3 Xrotation Yrotation Zrotation
											JOINT mixamorig:RightHandRing4
											{
												OFFSET -6.518356 0.000000 0.000000
												CHANNELS 3 Xrotation Yrotation Zrotation
												End Site
												{
													OFFSET 1.636398 6.232697 0.982186
												}
											}
										}
									}
								}
								JOINT mixamorig:RightHandPinky1
								{
									OFFSET -20.411011 -0.303314 -8.561701
									CHANNELS 3 Xrotation Yrotation Zrotation
									JOINT mixamorig:RightHandPinky2
									{
										OFFSET -6.907349 0.000000 0.000000
										CHANNELS 3 Xrotation Yrotation Zrotation
										JOINT mixamorig:RightHandPinky3
										{
											OFFSET -4.623840 0.000000 0.000000
											CHANNELS 3 Xrotation Yrotation Zrotation
											JOINT mixamorig:RightHandPinky4
											{
												OFFSET -5.218353 0.000000 0.000000
												CHANNELS 3 Xrotation Yrotation Zrotation
												End Site
												{
													OFFSET 0.602097 5.118835 0.816273
												}
											}
										}
									}
								}
							}
						}
					}
				}
			}
		}
	}
	JOINT mixamorig:LeftUpLeg
	{
		OFFSET 18.168400 -13.561905 -0.039000
		CHANNELS 3 Xrotation Yrotation Zrotation
		JOINT mixamorig:LeftLeg
		{
			OFFSET 0.577358 -80.825211 -3.695000
			CHANNELS 3 Xrotation Yrotation Zrotation
			JOINT mixamorig:LeftFoot
			{
				OFFSET -0.577356 -83.370262 -6.520700
				CHANNELS 3 Xrotation Yrotation Zrotation
				JOINT mixamorig:LeftToeBase
				{
					OFFSET 0.750401 -20.798306 25.135401
					CHANNELS 3 Xrotation Yrotation Zrotation
					JOINT mixamorig:LeftToe_End
					{
						OFFSET -0.000500 0.001200 19.917799
						CHANNELS 3 Xrotation Yrotation Zrotation
						End Site
						{
							OFFSET 0.000000 19.917805 0.000000
						}
					}
				}
			}
		}
	}
	JOINT mixamorig:RightUpLeg
	{
		OFFSET -18.162500 -13.585098 -0.041000
		CHANNELS 3 Xrotation Yrotation Zrotation
		JOINT mixamorig:RightLeg
		{
			OFFSET -0.595024 -80.945297 -3.631900
			CHANNELS 3 Xrotation Yrotation Zrotation
			JOINT mixamorig:RightFoot
			{
				OFFSET 0.595024 -83.218193 -6.561200
				CHANNELS 3 Xrotation Yrotation Zrotation
				JOINT mixamorig:RightToeBase
				{
					OFFSET -0.753601 -20.807106 25.115000
					CHANNELS 3 Xrotation Yrotation Zrotation
					JOINT mixamorig:RightToe_End
					{
						OFFSET 0.000299 0.001700 19.918200
						CHANNELS 3 Xrotation Yrotation Zrotation
						End Site
						{
							OFFSET 0.000000 19.918203 0.000000
						}
					}
				}
			}
		}
	}
}
MOTION
Frames: 4
Frame Time: 0.033333
-68.501480 170.494965 91.171524 14.531753 -7.123880 -4.486300 4.851469 -0.601401 2.047556 3.902855 -0.598527 1.222553 3.900688 -0.596841 1.225081 -11.338939 0.530487 2.156492 -4.955218 6.506342 -2.552769 -0.000000 -0.000000 -0.000000 -0.000000 -0.000000 -0.000000 -0.000000 -0.000000 -0.000000 2.471569 -0.106069 -7.485985 -9.222121 -33.107279 -52.580774 0.000173 -80.725275 0.000174 -23.369257 -43.469072 28.553625 -0.927671 -0.847032 -14.376367 0.598250 2.581003 -26.096329 0.029266 0.585432 -5.722482 0.000002 -0.000001 0.000000 -1.840849 -9.507499 -9.240974 3.452905 2.496268 -2.901983 -4.638813 5.770485 5.875197 0.000000 0.000002 -0.000000 8.217929 -16.471814 -19.121366 0.381217 2.080579 -20.763331 0.131220 1.234285 -12.136950 -0.000002 0.000003 0.000000 1.357005 7.504412 -16.606251 0.277276 1.782669 -17.680691 0.359262 2.021797 -20.150371 0.000000 -0.000001 0.000003 -6.913151 27.081869 -18.113723 0.156602 1.346919 -13.264109 0.052131 0.780664 -7.641025 -0.000002 0.000001 -0.000000 10.925295 17.219054 2.726133 -17.324508 28.754092 51.685653 -0.002429 94.069996 0.002473 4.352360 7.857433 -36.727949 0.246819 -3.759929 10.840697 0.518051 -2.136517 27.255595 0.283980 -1.602883 20.090911 0.000000 0.000000 -0.000000 -13.238817 13.184481 18.517157 7.301225 -18.369124 0.872214 -5.504779 -5.510950 -14.718513 -0.000004 -0.000000 -0.000000 -1.014767 7.769730 21.962770 0.344581 -1.759734 22.156808 0.039834 -0.608318 7.489057 0.000003 0.000001 -0.000000 3.039047 -11.075787 20.345108 0.219728 -1.415064 17.652206 0.259174 -1.533426 19.184685 -0.000001 -0.000004 -0.000004 -7.812424 -22.665998 19.385182 0.192797 -1.327512 16.527222 0.063809 -0.769222 9.486519 0.000002 0.000001 0.000003 -59.438225 -7.600032 20.496177 63.368815 -0.572427 3.342921 -16.618205 -4.228647 -16.339788 -1.320288 0.000166 -0.126114 0.000000 -0.000000 0.000000 -53.993933 1.396484 -10.233896 55.923215 3.157035 -5.566756 -14.778322 -3.052165 19.419037 -4.009800 0.000001 -0.000000 0.000000 0.000000 0.000000 
-70.354187 169.525406 93.321899 14.908157 -6.815399 -3.747744 4.990707 -0.554315 2.045265 4.004449 -0.563201 1.239180 4.003186 -0.556200 1.241325 -11.863106 0.654049 1.968289 -6.216916 6.800277 -2.898071 -0.000000 0.000000 -0.000000 -0.000000 0.000000 -0.000000 -0.000000 0.000000 -0.000000 2.491765 -0.253842 -7.889921 -8.530895 -32.981447 -52.550594 0.000047 -79.837118 0.000087 -22.846465 -43.605222 28.950095 -0.927672 -0.847030 -14.376365 0.598245 2.581008 -26.096302 0.029265 0.585425 -5.722508 -0.000000 0.000000 -0.000000 -1.840835 -9.507500 -9.240969 3.452907 2.496258 -2.901986 -4.638794 5.770464 5.875201 0.000000 -0.000001 0.000001 8.217951 -16.471819 -19.121354 0.381209 2.080552 -20.763317 0.131234 1.234282 -12.136952 -0.000002 -0.000001 -0.000006 1.357003 7.504423 -16.606241 0.277268 1.782673 -17.680711 0.359280 2.021786 -20.150357 -0.000001 -0.000000 -0.000000 -6.913142 27.081861 -18.113713 0.156591 1.346916 -13.264110 0.052159 0.780652 -7.641034 0.000001 0.000001 -0.000000 10.909953 17.306540 2.769748 -17.090892 28.802508 52.128912 -0.000266 92.384654 0.000333 3.938761 9.358137 -36.175776 0.246822 -3.759939 10.840703 0.518038 -2.136512 27.255586 0.283954 -1.602903 20.090909 0.000001 0.000001 0.000002 -13.238815 13.184473 18.517145 7.301231 -18.369112 0.872222 -5.504770 -5.510966 -14.718515 -0.000002 -0.000000 0.000000 -1.014767 7.769753 21.962794 0.344570 -1.759745 22.156809 0.039838 -0.608326 7.489043 -0.000001 0.000000 -0.000000 3.039051 -11.075790 20.345125 0.219730 -1.415070 17.652194 0.259164 -1.533410 19.184690 0.000000 -0.000002 0.000002 -7.812423 -22.665983 19.385200 0.192828 -1.327514 16.527224 0.063816 -0.769217 9.486503 -0.000001 -0.000003 0.000001 -59.284266 -7.652885 20.525475 64.114405 -0.829573 3.209995 -17.757961 -3.961233 -16.988330 -1.331401 0.000311 -0.173017 -0.000000 -0.000000 0.000000 -54.804239 1.862551 -10.437253 58.588352 2.925617 -5.608797 -16.891725 -3.306409 19.019114 -3.877883 -0.000003 -0.000002 -0.000000 -0.000001 -0.000000 
-71.925552 169.518341 95.241142 15.786435 -6.765303 -3.291291 4.932391 -0.422318 2.052808 3.963746 -0.469378 1.224256 3.961879 -0.462132 1.225663 -11.953944 0.828679 1.693414 -6.984478 7.194225 -3.428799 -0.000000 0.000000 0.000000 -0.000000 0.000000 0.000000 -0.000000 0.000000 0.000000 2.518686 -0.248119 -8.329596 -7.113997 -32.698663 -52.239565 -0.000028 -79.235577 -0.000037 -22.121439 -43.904770 29.590832 -0.927679 -0.847007 -14.376346 0.598258 2.581002 -26.096319 0.029255 0.585428 -5.722498 -0.000000 -0.000001 0.000005 -1.840845 -9.507500 -9.240973 3.452893 2.496277 -2.902005 -4.638796 5.770470 5.875222 -0.000001 0.000002 -0.000001 8.217929 -16.471809 -19.121391 0.381201 2.080575 -20.763316 0.131217 1.234293 -12.136942 -0.000000 0.000001 -0.000002 1.356997 7.504421 -16.606251 0.277290 1.782665 -17.680703 0.359274 2.021783 -20.150346 -0.000002 -0.000000 0.000001 -6.913149 27.081876 -18.113723 0.156614 1.346902 -13.264104 0.052143 0.780663 -7.641025 -0.000002 0.000001 0.000000 10.945831 17.300745 2.589922 -16.464528 29.353448 52.685009 -0.004236 90.528482 0.003965 3.546510 11.118768 -36.086898 0.246827 -3.759927 10.840701 0.518024 -2.136524 27.255598 0.283983 -1.602884 20.090911 0.000002 0.000001 0.000003 -13.238826 13.184491 18.517145 7.301218 -18.369135 0.872213 -5.504789 -5.510958 -14.718516 -0.000001 -0.000000 -0.000002 -1.014772 7.769735 21.962796 0.344590 -1.759732 22.156801 0.039816 -0.608318 7.489052 0.000002 -0.000001 -0.000004 3.039024 -11.075799 20.345127 0.219745 -1.415069 17.652216 0.259156 -1.533425 19.184693 -0.000001 0.000001 0.000005 -7.812422 -22.666002 19.385211 0.192815 -1.327512 16.527239 0.063828 -0.769222 9.486505 0.000001 0.000001 0.000001 -59.083418 -7.689257 20.692328 63.713548 -0.708039 3.201145 -18.344527 -3.806289 -17.675187 -1.329896 0.000299 -0.170494 -0.000000 -0.000000 0.000000 -55.374399 1.915202 -10.302101 59.497040 2.735052 -5.614701 -18.108505 -3.415420 18.584393 -3.741221 0.000004 0.000000 -0.000000 -0.000001 0.000000 
-73.472153 170.511551 97.039284 16.466628 -7.187618 -2.515334 4.747120 -0.244318 1.997987 3.825286 -0.333736 1.145176 3.822147 -0.327546 1.146235 -11.832529 1.010944 1.386490 -7.497359 7.561476 -3.788015 -0.000001 0.000000 0.000000 -0.000001 0.000000 0.000000 -0.000001 0.000000 0.000000 2.556208 -0.010861 -8.767203 -5.554360 -32.107548 -51.831744 -0.000002 -79.389078 0.000007 -20.827349 -43.701405 30.319708 -0.927682 -0.847018 -14.376361 0.598243 2.581027 -26.096315 0.029272 0.585418 -5.722494 0.000001 -0.000001 0.000003 -1.840842 -9.507496 -9.240972 3.452884 2.496257 -2.901986 -4.638791 5.770478 5.875183 0.000001 -0.000001 0.000000 8.217927 -16.471807 -19.121371 0.381207 2.080573 -20.763316 0.131221 1.234275 -12.136944 -0.000002 0.000000 0.000000 1.356984 7.504422 -16.606253 0.277286 1.782655 -17.680686 0.359249 2.021810 -20.150369 -0.000001 0.000001 0.000003 -6.913170 27.081871 -18.113711 0.156607 1.346909 -13.264100 0.052148 0.780654 -7.641026 0.000000 -0.000000 0.000002 11.019327 17.161260 2.271405 -15.879993 30.310272 53.357284 0.000082 88.690321 0.000031 3.004442 13.245052 -36.395858 0.246810 -3.759937 10.840692 0.518033 -2.136524 27.255581 0.283957 -1.602902 20.090913 0.000000 0.000000 0.000001 -13.238817 13.184485 18.517119 7.301224 -18.369116 0.872219 -5.504767 -5.510959 -14.718511 -0.000001 0.000000 0.000000 -1.014779 7.769724 21.962781 0.344589 -1.759730 22.156813 0.039810 -0.608314 7.489059 -0.000002 0.000000 -0.000003 3.039044 -11.075791 20.345115 0.219728 -1.415055 17.652212 0.259162 -1.533409 19.184688 -0.000002 -0.000001 0.000002 -7.812436 -22.666002 19.385197 0.192822 -1.327504 16.527215 0.063820 -0.769228 9.486511 -0.000002 -0.000001 0.000001 -57.889029 -7.054853 20.768613 62.009436 0.038278 3.383212 -18.420498 -3.781133 -18.559705 -1.328663 0.000293 -0.168416 0.000000 -0.000000 0.000000 -55.317880 1.862922 -10.285136 59.130266 3.127725 -5.571045 -18.612769 -3.358464 17.835034 -3.753271 0.000003 0.000005 0.000000 -0.000001 -0.000000 
